<svg width="768" height="400" viewBox="0 0 768 400" fill="none" xmlns="http://www.w3.org/2000/svg">
  <rect width="768" height="400" fill="#F9FAFB"/>
  <g opacity="0.4">
    <path d="M350 200C350 177.909 332.091 160 310 160C297.544 160 286.489 165.955 279.445 175.111C276.751 173.165 273.498 172 270 172C259.507 172 251 180.507 251 191C251 192.048 251.071 193.081 251.208 194.093C238.768 196.883 230 207.895 230 221C230 236.464 242.536 249 258 249H340C355.464 249 368 236.464 368 221C368 209.347 361.23 199.274 351.462 194.565C350.819 196.289 350 198.095 350 200Z" fill="#E5E7EB"/>
    <circle cx="310" cy="225" r="25" fill="#9CA3AF"/>
    <circle cx="310" cy="225" r="15" fill="none" stroke="white" stroke-width="2"/>
    <circle cx="310" cy="225" r="8" fill="white"/>
  </g>
</svg>
